HIERARCHY
ROOT Hips
{
	OFFSET 0.00000 0.00000 0.00000
	CHANNELS 6 Xposition Yposition Zposition Zrotation Yrotation Xrotation 
	JOINT LHipJoint
	{
		OFFSET 0 0 0
		CHANNELS 3 Zrotation Yrotation Xrotation
		JOINT LeftUpLeg
		{
			OFFSET 1.86795 -1.59681 0.65681
			CHANNELS 3 Zrotation Yrotation Xrotation
			JOINT LeftLeg
			{
				OFFSET 2.30491 -6.33268 0.00000
				CHANNELS 3 Zrotation Yrotation Xrotation
				JOINT LeftFoot
				{
					OFFSET 2.46780 -6.78022 0.00000
					CHANNELS 3 Zrotation Yrotation Xrotation
					JOINT LeftToeBase
					{
						OFFSET 0.07897 -0.21698 1.59652
						CHANNELS 3 Zrotation Yrotation Xrotation
						End Site
						{
							OFFSET 0.00000 -0.00000 0.82310
						}
					}
				}
			}
		}
	}
	JOINT RHipJoint
	{
		OFFSET 0 0 0
		CHANNELS 3 Zrotation Yrotation Xrotation
		JOINT RightUpLeg
		{
			OFFSET -1.93650 -1.59681 0.65681
			CHANNELS 3 Zrotation Yrotation Xrotation
			JOINT RightLeg
			{
				OFFSET -2.29410 -6.30299 0.00000
				CHANNELS 3 Zrotation Yrotation Xrotation
				JOINT RightFoot
				{
					OFFSET -2.48738 -6.83403 0.00000
					CHANNELS 3 Zrotation Yrotation Xrotation
					JOINT RightToeBase
					{
						OFFSET -0.08699 -0.23899 1.89395
						CHANNELS 3 Zrotation Yrotation Xrotation
						End Site
						{
							OFFSET -0.00000 -0.00000 0.96904
						}
					}
				}
			}
		}
	}
	JOINT LowerBack
	{
		OFFSET 0 0 0
		CHANNELS 3 Zrotation Yrotation Xrotation
		JOINT Spine
		{
			OFFSET 0.03629 1.99740 -0.07548
			CHANNELS 3 Zrotation Yrotation Xrotation
			JOINT Spine1
			{
				OFFSET 0.03970 1.94298 0.17218
				CHANNELS 3 Zrotation Yrotation Xrotation
				JOINT Neck
				{
					OFFSET 0 0 0
					CHANNELS 3 Zrotation Yrotation Xrotation
					JOINT Neck1
					{
						OFFSET -0.05054 1.79469 0.04241
						CHANNELS 3 Zrotation Yrotation Xrotation
						JOINT Head
						{
							OFFSET 0.05195 1.78475 -0.22133
							CHANNELS 3 Zrotation Yrotation Xrotation
							End Site
							{
								OFFSET 0.02420 1.80711 -0.07950
							}
						}
					}
				}
				JOINT LeftShoulder
				{
					OFFSET 0 0 0
					CHANNELS 3 Zrotation Yrotation Xrotation
					JOINT LeftArm
					{
						OFFSET 2.92134 1.19850 0.36056
						CHANNELS 3 Zrotation Yrotation Xrotation
						JOINT LeftForeArm
						{
							OFFSET 4.84137 -0.00000 0.00000
							CHANNELS 3 Zrotation Yrotation Xrotation
							JOINT LeftHand
							{
								OFFSET 3.24520 -0.00000 -0.00000
								CHANNELS 3 Zrotation Yrotation Xrotation
								JOINT LeftFingerBase
								{
									OFFSET 0 0 0
									CHANNELS 3 Zrotation Yrotation Xrotation
									JOINT LeftHandIndex1
									{
										OFFSET 0.52122 -0.00000 0.00000
										CHANNELS 3 Zrotation Yrotation Xrotation
										End Site
										{
											OFFSET 0.42022 -0.00000 0.00000
										}
									}
								}
								JOINT LThumb
								{
									OFFSET 0 0 0
									CHANNELS 3 Zrotation Yrotation Xrotation
									End Site
									{
										OFFSET 0.42664 -0.00000 0.42664
									}
								}
							}
						}
					}
				}
				JOINT RightShoulder
				{
					OFFSET 0 0 0
					CHANNELS 3 Zrotation Yrotation Xrotation
					JOINT RightArm
					{
						OFFSET -2.84327 1.20795 0.50191
						CHANNELS 3 Zrotation Yrotation Xrotation
						JOINT RightForeArm
						{
							OFFSET -4.72284 -0.00000 0.00000
							CHANNELS 3 Zrotation Yrotation Xrotation
							JOINT RightHand
							{
								OFFSET -3.23459 -0.00000 0.00000
								CHANNELS 3 Zrotation Yrotation Xrotation
								JOINT RightFingerBase
								{
									OFFSET 0 0 0
									CHANNELS 3 Zrotation Yrotation Xrotation
									JOINT RightHandIndex1
									{
										OFFSET -0.30742 -0.00000 0.00000
										CHANNELS 3 Zrotation Yrotation Xrotation
										End Site
										{
											OFFSET -0.24785 -0.00000 0.00000
										}
									}
								}
								JOINT RThumb
								{
									OFFSET 0 0 0
									CHANNELS 3 Zrotation Yrotation Xrotation
									End Site
									{
										OFFSET -0.25163 -0.00000 0.25163
									}
								}
							}
						}
					}
				}
			}
		}
	}
}
MOTION
Frames: 12
Frame Time: 0.0186916
0.00 0.00 0.00 0 0 0 0 0 0 -21 0 0 0 0 0 0 0 0 0 0 0 0 0 0 21 0 0 0 0 0 0 0 0 0 0 0 0 0 0 0 0 0 0 0 0 0 0 -16 0 0 21 0 0 11 0 0 0 -8 0 0 0 0 0 0 0 0 0 0 0 0 0 0 0 0 0 0 0 0 8 0 0 0 0 0 0 0 0 0 0 0 0 0 0 0 0 0
0.00 0.00 0.00 1.3163 -31.3058 13.2389 0.0000 0.0000 0.0000 -24.1414 -20.4488 -24.5329 4.4193 12.6984 38.2499 1.6318 8.3070 -28.3692 0.3922 -4.0215 -11.1372 0.0000 0.0000 0.0000 17.9743 11.8498 -52.9478 -13.4659 -18.9440 70.5664 -0.0591 2.3876 6.1115 -1.4834 7.6950 -21.7915 0.3689 1.1524 8.2780 -0.3596 1.5453 0.3523 -0.7620 0.7517 -4.2569 -5.4578 -0.0880 -6.4107 7.6392 -0.7202 15.9292 3.2773 -0.1442 5.8907 -0.0000 0.0000 0.0000 -90.0237 25.1270 34.5705 26.0232 -37.2316 -8.9017 -0.0000 0.0000 -13.9316 -19.3066 55.2272 -16.0539 -7.1250 0.0000 -0.0000 -88.0331 65.4572 -60.6891 -0.0000 0.0000 0.0000 84.7308 -23.0850 45.6559 -23.2820 34.3957 -7.2970 0.0000 -0.0000 -37.8460 -27.0641 12.9088 -6.5117 7.1250 -0.0000 -0.0000 0.1690 -15.5466 0.1175
0.00 0.00 0.00 1.4636 -31.7205 12.7175 0.0000 0.0000 0.0000 -23.8902 -19.0579 -26.3931 5.0862 13.4802 41.1939 0.8039 5.9824 -20.1387 0.7854 -5.6576 -15.7941 0.0000 0.0000 0.0000 16.4040 11.1282 -56.2353 -13.7838 -19.0472 71.5431 -1.2298 4.8461 23.2092 -0.4312 4.2142 -11.6800 0.0790 0.8839 9.6290 -0.0619 1.1734 0.2681 -0.2715 0.5727 -5.1204 -5.8609 0.0532 -6.3632 7.9105 -0.4978 15.4734 3.4392 -0.0435 5.7241 0.0000 -0.0000 0.0000 -91.1424 24.3938 32.8956 25.2903 -36.4993 -8.4620 -0.0000 0.0000 -13.0441 -20.4890 54.2391 -16.8682 -7.1250 0.0000 -0.0000 -86.6493 64.8718 -58.3918 0.0000 -0.0000 0.0000 83.8922 -22.8779 45.8269 -22.9426 34.0260 -7.1062 0.0000 -0.0000 -37.3448 -24.1948 12.3942 -5.5084 7.1250 -0.0000 -0.0000 2.1135 -16.4401 1.4300
0.00 0.00 0.00 1.9744 -31.4704 13.0847 0.0000 0.0000 0.0000 -22.6489 -15.7536 -35.7786 7.6947 15.8900 51.4552 0.0334 -3.0160 -3.6154 0.0802 -1.8268 -5.0271 0.0000 0.0000 0.0000 14.9773 11.8316 -56.1178 -12.7611 -18.6942 68.3819 -3.1424 0.0122 33.6444 -0.0024 -0.3168 0.8706 -0.1520 0.8807 10.6739 -0.3326 1.1242 0.1072 -0.4370 0.5483 -5.8760 -5.4152 -0.3057 -5.8710 7.7587 -0.9679 14.2787 3.2656 -0.2712 5.3024 0.0000 0.0000 0.0000 -90.6430 24.5425 31.4000 25.6749 -36.8858 -8.6918 -0.0000 0.0000 -11.4912 -25.2076 53.3296 -20.6847 -7.1250 0.0000 -0.0000 -87.5541 63.1819 -56.9314 0.0000 0.0000 0.0000 83.6468 -23.3043 47.6190 -23.0757 34.1715 -7.1808 0.0000 -0.0000 -36.0727 -25.2385 9.8383 -4.6050 7.1250 -0.0000 -0.0000 1.2455 -19.1281 0.7688
0.00 0.00 0.00 3.2994 -31.7433 11.6146 0.0000 0.0000 0.0000 -22.8927 -16.1196 -39.1557 8.7823 16.6656 55.3342 0.4654 -1.5458 13.5411 0.0013 -0.2304 -0.6332 0.0000 0.0000 0.0000 14.7076 12.5959 -53.0732 -11.9040 -18.3498 65.6844 -3.2259 0.1976 34.1501 -0.0558 1.5243 -4.1926 -1.1773 0.9548 11.7537 -0.7945 1.0480 0.7077 -0.3428 0.5286 -5.8592 -5.7457 -0.4572 -6.1692 8.4056 -1.2620 14.9594 3.5192 -0.3804 5.5877 -0.0000 0.0000 0.0000 -90.5263 23.7082 31.0593 25.3537 -36.5634 -8.4997 -0.0000 0.0000 -12.4871 -16.7901 51.4072 -13.2697 -7.1250 0.0000 -0.0000 -78.8399 65.2661 -50.9907 -0.0000 0.0000 0.0000 84.0181 -22.7492 47.6142 -23.5886 34.7261 -7.4709 0.0000 -0.0000 -36.1486 -22.7654 10.2249 -4.2603 7.1250 -0.0000 -0.0000 3.0172 -18.9201 1.8784
0.00 0.00 0.00 4.3514 -36.8821 15.8530 0.0000 0.0000 0.0000 -23.1819 -15.0917 -34.1679 9.5651 17.1579 58.0247 0.5897 7.9509 13.9436 0.7933 5.6854 15.8743 0.0000 0.0000 0.0000 15.1026 15.0782 -58.9387 -11.1966 -18.0299 63.4183 -0.8047 4.7542 19.3209 -0.7592 5.5645 -15.5260 0.8147 0.2702 11.6565 0.0006 0.4732 -1.1144 -0.5448 0.1944 -7.7300 -5.1284 -0.4449 -6.0979 6.9738 -0.8147 9.4758 2.9310 -0.2442 3.8661 0.0000 -0.0000 0.0000 -91.3929 24.0704 29.3909 21.5350 -32.4475 -6.3346 -0.0000 0.0000 -7.1330 -32.5835 45.5243 -24.5150 -7.1250 0.0000 -0.0000 -79.6731 58.5487 -41.2062 0.0000 -0.0000 0.0000 83.9881 -24.8764 46.1729 -23.9942 35.1582 -7.7032 0.0000 -0.0000 -48.9959 -8.9834 6.8019 -1.0726 7.1250 -0.0000 -0.0000 13.0094 -23.1287 7.0307
0.00 0.00 0.00 0.3927 -48.2143 19.7290 0.0000 0.0000 0.0000 -19.5451 -11.5097 -36.7622 14.2022 19.1742 72.8211 1.2943 10.6593 20.5721 1.0179 6.4188 18.0044 0.0000 0.0000 0.0000 21.8199 17.2968 -52.1751 -13.3410 -18.9018 70.1814 0.2043 7.9914 3.2712 -1.0203 6.4260 -18.0254 3.5456 -0.0061 9.6092 0.2765 0.4506 -2.0544 -1.7771 0.0667 -7.5523 -4.6700 2.2723 -6.9350 4.6753 3.0761 9.0224 2.5971 1.5700 4.0803 -0.0000 0.0000 0.0000 -91.7099 23.8110 28.1467 19.4123 -29.9277 -5.2349 -0.0000 0.0000 -7.0897 -34.8184 45.1533 -26.2481 -7.1250 0.0000 -0.0000 -80.6946 57.8227 -40.8946 -0.0000 0.0000 0.0000 83.9092 -24.9585 46.3591 -22.9890 34.0768 -7.1321 0.0000 -0.0000 -48.4773 -7.7089 7.5122 -1.0139 7.1250 -0.0000 -0.0000 13.8659 -22.4575 7.7406
0.00 0.00 0.00 -2.0859 -50.4990 24.3046 0.0000 0.0000 0.0000 -12.3926 -17.7488 -55.1573 20.2937 19.9979 90.8588 0.1360 8.1920 8.1828 1.2614 7.1196 20.0701 0.0000 0.0000 0.0000 23.4440 22.2489 -49.2900 -14.1649 -19.1633 72.7075 -0.0178 4.1500 -3.5762 -0.5373 4.6965 -13.0448 5.7750 0.7846 8.4051 0.4387 1.7705 -3.7245 -3.0552 0.5475 -8.5355 -4.8713 2.3425 -7.5013 4.5336 3.2228 9.4682 2.3521 1.6510 3.8948 -0.0000 0.0000 0.0000 -92.2813 23.3886 25.8473 19.9991 -30.6413 -5.5309 -0.0000 0.0000 -5.6571 -33.5216 45.0437 -25.1155 -7.1250 0.0000 -0.0000 -79.6354 58.1171 -40.3934 -0.0000 0.0000 0.0000 82.9072 -26.4695 49.0628 -22.6020 33.6507 -6.9165 0.0000 -0.0000 -49.4341 -3.4203 5.6802 -0.3389 7.1250 -0.0000 -0.0000 17.1387 -24.2799 8.9660
0.00 0.00 0.00 1.5034 -49.9582 23.3036 0.0000 0.0000 0.0000 -7.0195 -24.2271 -71.5671 14.9220 19.3702 75.0015 0.0124 6.0602 4.5791 2.8289 10.4128 30.3241 0.0000 0.0000 0.0000 26.1001 22.9388 -34.9396 -10.4935 -17.6782 61.1256 0.0563 -4.2154 -1.8786 -2.4682 9.7798 -28.2666 4.3721 1.8750 7.3271 -0.3820 2.9776 -4.9476 -3.3045 1.1502 -9.1372 -5.3132 1.1270 -8.3540 4.2483 1.7081 9.9530 2.2745 0.8794 4.2581 -0.0000 -0.0000 0.0000 -90.7621 24.2063 25.6395 21.4457 -32.3449 -6.2867 -0.0000 0.0000 -3.8382 -31.5176 44.9268 -23.4155 -7.1250 0.0000 -0.0000 -78.0563 58.5938 -39.7371 -0.0000 -0.0000 0.0000 84.1209 -27.0505 51.2444 -20.4158 31.1401 -5.7448 0.0000 -0.0000 -51.0355 -1.8740 2.8902 -0.0945 7.1250 -0.0000 -0.0000 18.6632 -26.9273 8.6220
0.00 0.00 0.00 3.4106 -49.0038 19.5000 0.0000 0.0000 0.0000 -11.2685 -24.5455 -66.7711 9.5757 17.1642 58.0605 1.0106 4.4051 18.0376 1.1859 6.9110 19.4519 0.0000 0.0000 0.0000 28.6599 20.5400 -20.9916 -6.7506 -15.1182 47.9245 -0.1722 -2.8642 7.3717 -2.2494 9.3673 -26.9513 3.1800 2.2823 7.3606 -0.6427 3.3620 -4.3621 -2.9505 1.4304 -8.5278 -5.6473 0.4650 -7.7943 4.6681 0.7922 9.6048 2.3985 0.4367 4.1003 0.0000 0.0000 0.0000 -90.6509 24.3603 24.6578 21.4171 -32.3120 -6.2714 -0.0000 0.0000 -1.9474 -32.1776 44.4867 -23.7926 -7.1250 0.0000 -0.0000 -77.8918 58.2438 -38.9582 0.0000 0.0000 0.0000 85.3513 -27.4733 49.1851 -19.4135 29.9293 -5.2356 0.0000 -0.0000 -50.7001 -1.8842 2.4066 -0.0791 7.1250 -0.0000 -0.0000 18.7347 -27.3857 8.4435
0.00 0.00 0.00 4.5397 -47.1308 18.9086 0.0000 0.0000 0.0000 -16.4058 -23.3057 -62.9701 6.1860 14.6062 45.7236 2.3289 0.1884 28.8597 0.9746 6.2847 17.6127 0.0000 0.0000 0.0000 29.7243 20.5618 -13.3019 -4.3256 -12.5815 37.8213 -1.5398 -2.0986 22.8819 -1.6780 8.1604 -23.2022 2.1703 2.3689 5.2619 -0.9657 3.2939 -4.8277 -2.6208 1.4573 -7.8409 -5.4564 -0.1526 -6.6809 4.9058 -0.1224 8.8474 2.3800 -0.0047 3.7335 -0.0000 -0.0000 0.0000 -90.1632 24.9652 24.6022 20.6578 -31.4267 -5.8705 -0.0000 -0.0000 0.3821 -32.6380 43.1170 -23.6413 -7.1250 0.0000 -0.0000 -76.2935 57.5529 -36.2344 -0.0000 -0.0000 0.0000 86.7285 -28.2080 46.4645 -18.4263 28.6995 -4.7522 0.0000 -0.0000 -49.8287 1.0708 1.2721 0.0238 7.1250 -0.0000 -0.0000 21.1046 -28.3844 9.1138
0.00 0.00 0.00 9.8454 -49.6203 13.9512 0.0000 0.0000 0.0000 -28.0230 -19.5005 -43.5206 7.2797 15.5630 49.9244 -0.0101 -1.8086 0.3365 0.0320 -1.1545 -3.1741 0.0000 0.0000 0.0000 19.1718 7.8385 -42.7813 -17.9251 -19.8965 83.9234 -5.4175 -1.3897 44.0329 -0.1994 -2.8752 7.9314 -5.8548 1.2258 4.8103 -2.8925 0.8588 -5.3767 0.1187 0.6514 -8.4410 -3.6917 1.5407 -5.4955 6.6074 1.9078 5.7742 2.9078 1.0827 2.7383 0.0000 -0.0000 0.0000 -89.0099 30.4995 24.9698 22.6073 -33.6565 -6.9194 -0.0000 -0.0000 1.0698 -41.3161 35.7341 -27.1746 -7.1250 0.0000 -0.0000 -72.6458 52.1835 -22.2202 0.0000 -0.0000 0.0000 86.6825 -29.9000 43.6036 -21.0261 31.8588 -6.0637 0.0000 -0.0000 -53.5335 10.2361 2.9326 0.5293 7.1250 -0.0000 -0.0000 27.1977 -26.5161 13.7057
